<svg width="220" height="220" viewBox="0 0 220 220" fill="none" xmlns="http://www.w3.org/2000/svg">
<circle cx="110" cy="110" r="110" fill="white"/>
<path d="M99.72 135.984H103.304V158H42.504V154.416L49.544 153.52C50.9093 153.349 51.72 153.008 51.976 152.496C52.232 151.899 52.36 150.149 52.36 147.248V81.712C52.36 78.8107 52.232 77.104 51.976 76.592C51.72 75.9947 50.9093 75.6107 49.544 75.44L42.504 74.544V70.96H77.576V74.544L70.536 75.44C69.1707 75.6107 68.36 75.9947 68.104 76.592C67.848 77.104 67.72 78.8107 67.72 81.712V153.52H88.712C90.76 153.52 92.2107 153.477 93.064 153.392C93.9173 153.221 94.472 152.923 94.728 152.496C95.0693 151.984 95.368 151.216 95.624 150.192L99.72 135.984ZM170.405 135.984H173.989V158H110.629V154.416L117.669 153.52C119.034 153.349 119.845 153.008 120.101 152.496C120.357 151.899 120.485 150.149 120.485 147.248V81.712C120.485 78.8107 120.357 77.104 120.101 76.592C119.845 75.9947 119.034 75.6107 117.669 75.44L110.629 74.544V70.96H172.709V92.976H169.125L165.029 78.768C164.773 77.744 164.474 77.0187 164.133 76.592C163.877 76.08 163.322 75.7813 162.469 75.696C161.616 75.5253 160.165 75.44 158.117 75.44H135.845V111.792H150.437C152.485 111.792 153.936 111.749 154.789 111.664C155.642 111.493 156.197 111.195 156.453 110.768C156.794 110.256 157.093 109.488 157.349 108.464L160.165 98.096H163.749V129.968H160.165L157.349 119.6C157.093 118.576 156.794 117.851 156.453 117.424C156.197 116.912 155.642 116.613 154.789 116.528C153.936 116.357 152.485 116.272 150.437 116.272H135.845V153.52H159.397C161.445 153.52 162.896 153.477 163.749 153.392C164.602 153.221 165.157 152.923 165.413 152.496C165.754 151.984 166.053 151.216 166.309 150.192L170.405 135.984Z" fill="black"/>
</svg>
